<svg xmlns="http://www.w3.org/2000/svg" width="57" height="57" viewBox="0 0 57 57" fill="none">
<path d="M28.1643 32.4163C34.6786 32.4163 39.9595 27.1354 39.9595 20.6211C39.9595 14.1068 34.6786 8.82587 28.1643 8.82587C21.65 8.82587 16.3691 14.1068 16.3691 20.6211C16.3691 27.1354 21.65 32.4163 28.1643 32.4163Z" fill="white"/>
<g filter="url(#filter0_d_803_110)">
<path d="M28.0625 8.43457C21.4007 8.43457 16 13.7887 16 20.3929C16 26.9972 21.4007 32.3513 28.0625 32.3513C34.7242 32.3513 40.1249 26.9972 40.1249 20.3929C40.1249 13.7887 34.7242 8.43457 28.0625 8.43457ZM32.1298 22.409L34.1634 24.4251L32.1298 26.4412L30.0961 24.4251L28.0625 22.409L26.0288 24.4251L23.9952 26.4412L21.9615 24.4251L23.9952 22.409L26.0288 20.3929L23.9952 18.3768L21.9615 16.3607L23.9952 14.3446L26.0288 16.3607L28.0625 18.3768L30.0961 16.3607L32.1298 14.3446L34.1634 16.3607L32.1298 18.3768L30.0961 20.3929L32.1298 22.409Z" fill="#B90101"/>
</g>
<defs>
<filter id="filter0_d_803_110" x="0" y="0.43457" width="56.125" height="55.9167" filterUnits="userSpaceOnUse" color-interpolation-filters="sRGB">
<feFlood flood-opacity="0" result="BackgroundImageFix"/>
<feColorMatrix in="SourceAlpha" type="matrix" values="0 0 0 0 0 0 0 0 0 0 0 0 0 0 0 0 0 0 127 0" result="hardAlpha"/>
<feOffset dy="8"/>
<feGaussianBlur stdDeviation="8"/>
<feColorMatrix type="matrix" values="0 0 0 0 0.0627451 0 0 0 0 0.137255 0 0 0 0 0.247059 0 0 0 0.6 0"/>
<feBlend mode="normal" in2="BackgroundImageFix" result="effect1_dropShadow_803_110"/>
<feBlend mode="normal" in="SourceGraphic" in2="effect1_dropShadow_803_110" result="shape"/>
</filter>
</defs>
</svg>