<svg xmlns="http://www.w3.org/2000/svg" width="154" height="101" viewBox="0 0 154 101" fill="none">
<g filter="url(#filter0_f_961_2)">
<path d="M121.969 49.5885C121.969 59.8018 124.78 72.5496 76.9844 68.0814C52.1402 68.0814 32 59.8018 32 49.5885C32 39.3751 34.8115 56.391 79.7959 32.0073C104.64 32.0073 121.969 31.0955 121.969 49.5885Z" fill="url(#paint0_linear_961_2)"/>
</g>
<g filter="url(#filter1_f_961_2)">
<path d="M121.969 49.5885C121.969 59.8018 124.78 72.5496 76.9844 68.0814C52.1402 68.0814 32 59.8018 32 49.5885C32 39.3751 34.8115 56.391 79.7959 32.0073C104.64 32.0073 121.969 31.0955 121.969 49.5885Z" fill="url(#paint1_linear_961_2)"/>
</g>
<g filter="url(#filter2_f_961_2)">
<path d="M121.969 49.5885C121.969 59.8018 124.78 72.5496 76.9844 68.0814C52.1402 68.0814 32 59.8018 32 49.5885C32 39.3751 34.8115 56.391 79.796 32.0073C104.64 32.0073 121.969 31.0955 121.969 49.5885Z" fill="url(#paint2_linear_961_2)"/>
</g>
<defs>
<filter id="filter0_f_961_2" x="0" y="0" width="154" height="101" filterUnits="userSpaceOnUse" color-interpolation-filters="sRGB">
<feFlood flood-opacity="0" result="BackgroundImageFix"/>
<feBlend mode="normal" in="SourceGraphic" in2="BackgroundImageFix" result="shape"/>
<feGaussianBlur stdDeviation="16" result="effect1_foregroundBlur_961_2"/>
</filter>
<filter id="filter1_f_961_2" x="20" y="20" width="114" height="61" filterUnits="userSpaceOnUse" color-interpolation-filters="sRGB">
<feFlood flood-opacity="0" result="BackgroundImageFix"/>
<feBlend mode="normal" in="SourceGraphic" in2="BackgroundImageFix" result="shape"/>
<feGaussianBlur stdDeviation="6" result="effect1_foregroundBlur_961_2"/>
</filter>
<filter id="filter2_f_961_2" x="28" y="28" width="98" height="45" filterUnits="userSpaceOnUse" color-interpolation-filters="sRGB">
<feFlood flood-opacity="0" result="BackgroundImageFix"/>
<feBlend mode="normal" in="SourceGraphic" in2="BackgroundImageFix" result="shape"/>
<feGaussianBlur stdDeviation="2" result="effect1_foregroundBlur_961_2"/>
</filter>
<linearGradient id="paint0_linear_961_2" x1="113.534" y1="32.0073" x2="16.3682" y2="59.1436" gradientUnits="userSpaceOnUse">
<stop stop-color="#3A71FF"/>
<stop offset="1" stop-color="#3A65FF" stop-opacity="0"/>
</linearGradient>
<linearGradient id="paint1_linear_961_2" x1="113.534" y1="32.0073" x2="16.3682" y2="59.1436" gradientUnits="userSpaceOnUse">
<stop stop-color="#3A71FF"/>
<stop offset="1" stop-color="#3A65FF" stop-opacity="0"/>
</linearGradient>
<linearGradient id="paint2_linear_961_2" x1="113.534" y1="32.0073" x2="16.3682" y2="59.1436" gradientUnits="userSpaceOnUse">
<stop stop-color="#3A71FF"/>
<stop offset="1" stop-color="#3A65FF" stop-opacity="0"/>
</linearGradient>
</defs>
</svg>